# xmcd CD database file
#
# Track frame offsets:
#	150
#	21487
#	35730
#	53740
#	71552
#	86887
#	105215
#	123795
#	139722
#	156057
#	173330
#	189735
#
# Disc length: 2803 seconds
#
# Revision: 2
# Processed by: cddbd v1.5.1PL0 Copyright (c) Steve Scherf et al.
# Submitted via: CDex 1.40Release
#
DISCID=990af10c
DTITLE=Gli Alunni Del Sole - I Grandi Successi Originali cd1
DYEAR=1900
DGENRE=Pop
TTITLE0=Tarante'
TTITLE1=Pagliaccio
TTITLE2=I ritornelli infantili
TTITLE3=Liu'
TTITLE4=Le maschere infuocate
TTITLE5=Un'Altra poesia
TTITLE6='A canzuncella
TTITLE7=e mi manchi tanto
TTITLE8=Isa isa isabella
TTITLE9=Cantilena
TTITLE10=Un ricordo
TTITLE11=I Tuoi Silenzi
EXTD=ID3G: 13
EXTT0=
EXTT1=
EXTT2=
EXTT3=
EXTT4=
EXTT5=
EXTT6=
EXTT7=
EXTT8=
EXTT9=
EXTT10=
EXTT11=
PLAYORDER=
